<?xml version="1.0" encoding="UTF-8" standalone="no"?>
<!-- Created with Inkscape (http://www.inkscape.org/) -->

<svg
   xmlns:dc="http://purl.org/dc/elements/1.1/"
   xmlns:cc="http://creativecommons.org/ns#"
   xmlns:rdf="http://www.w3.org/1999/02/22-rdf-syntax-ns#"
   xmlns:svg="http://www.w3.org/2000/svg"
   xmlns="http://www.w3.org/2000/svg"
   xmlns:sodipodi="http://sodipodi.sourceforge.net/DTD/sodipodi-0.dtd"
   xmlns:inkscape="http://www.inkscape.org/namespaces/inkscape"
   width="210mm"
   height="140mm"
   viewBox="0 0 210 140"
   version="1.1"
   id="svg2775"
   sodipodi:docname="ahoi.svg"
   inkscape:version="0.92.4 (5da689c313, 2019-01-14)">
  <defs
     id="defs2769" />
  <sodipodi:namedview
     id="base"
     pagecolor="#ffffff"
     bordercolor="#666666"
     borderopacity="1.0"
     inkscape:pageopacity="0.0"
     inkscape:pageshadow="2"
     inkscape:zoom="0.32"
     inkscape:cx="126.26783"
     inkscape:cy="348.29191"
     inkscape:document-units="mm"
     inkscape:current-layer="layer1"
     showgrid="false"
     inkscape:window-width="1536"
     inkscape:window-height="801"
     inkscape:window-x="-8"
     inkscape:window-y="-8"
     inkscape:window-maximized="1" />
  <metadata
     id="metadata2772">
    <rdf:RDF>
      <cc:Work
         rdf:about="">
        <dc:format>image/svg+xml</dc:format>
        <dc:type
           rdf:resource="http://purl.org/dc/dcmitype/StillImage" />
        <dc:title></dc:title>
      </cc:Work>
    </rdf:RDF>
  </metadata>
  <g
     inkscape:label="Layer 1"
     inkscape:groupmode="layer"
     id="layer1"
     transform="translate(0,-157)">
    <g
       transform="matrix(0.32073624,0,0,-0.32516139,0.03555774,335.20467)"
       inkscape:label="ink_ext_XXXXXX"
       id="g3328"
       style="stroke:none;stroke-width:0;stroke-miterlimit:4;stroke-dasharray:none">
      <g
         transform="scale(0.1)"
         id="g3330"
         style="stroke:none;stroke-width:0;stroke-miterlimit:4;stroke-dasharray:none">
        <path
           inkscape:connector-curvature="0"
           id="path3332"
           style="fill:#cce8f7;fill-opacity:1;fill-rule:evenodd;stroke:none;stroke-width:0;stroke-miterlimit:4;stroke-dasharray:none"
           d="M 0,0 H 6606.02 V 6606.01 H 0 V 0" />
        <path
           inkscape:connector-curvature="0"
           id="path3334"
           style="fill:#4ba6ce;fill-opacity:1;fill-rule:evenodd;stroke:none;stroke-width:0;stroke-miterlimit:4;stroke-dasharray:none"
           d="M 0,0 H 6606.02 V 2648.09 H 0 V 0" />
        <path
           inkscape:connector-curvature="0"
           id="path3336"
           style="fill:#e5f5fc;fill-opacity:1;fill-rule:evenodd;stroke:none;stroke-width:0;stroke-miterlimit:4;stroke-dasharray:none"
           d="m 0,2933.09 h 6606.02 v 16.72 H 0 v -16.72" />
        <path
           inkscape:connector-curvature="0"
           id="path3338"
           style="fill:#e5f5fc;fill-opacity:1;fill-rule:evenodd;stroke:none;stroke-width:0;stroke-miterlimit:4;stroke-dasharray:none"
           d="m 0,3066.85 h 6606.02 v 16.72 H 0 v -16.72" />
        <path
           inkscape:connector-curvature="0"
           id="path3340"
           style="fill:#e5f5fc;fill-opacity:1;fill-rule:evenodd;stroke:none;stroke-width:0;stroke-miterlimit:4;stroke-dasharray:none"
           d="m 0,3496.02 h 6606.02 v 37.64 H 0 v -37.64" />
        <path
           inkscape:connector-curvature="0"
           id="path3342"
           style="fill:#e5f5fc;fill-opacity:1;fill-rule:evenodd;stroke:none;stroke-width:0;stroke-miterlimit:4;stroke-dasharray:none"
           d="m 0,4465.85 h 6606.02 v 273.09 H 0 v -273.09" />
        <path
           inkscape:connector-curvature="0"
           id="path3344"
           style="fill:#e5f5fc;fill-opacity:1;fill-rule:evenodd;stroke:none;stroke-width:0;stroke-miterlimit:4;stroke-dasharray:none"
           d="m 0,3911.24 h 6606.02 v 122.64 H 0 v -122.64" />
        <path
           inkscape:connector-curvature="0"
           id="path3346"
           style="fill:#6f4419;fill-opacity:1;fill-rule:evenodd;stroke:none;stroke-width:0;stroke-miterlimit:4;stroke-dasharray:none"
           d="m 1732.8,2866.52 640.96,350.93 311.33,486.18 311.32,277.82 158.72,32.89 219.76,-36.55 207.55,14.62 311.31,-274.16 134.31,-343.61 659.04,-539.3 -2954.3,31.18" />
        <path
           inkscape:connector-curvature="0"
           id="path3348"
           style="fill:#85501c;fill-opacity:1;fill-rule:evenodd;stroke:none;stroke-width:0;stroke-miterlimit:4;stroke-dasharray:none"
           d="m 3155.13,4014.34 -27.45,-120.62 73.25,-144.4 -128.19,-138.91 115.98,-252.23 158.72,-60.31 24.42,-137.08 228.92,-171.81 927.18,-23.42 -499.9,409.08 -134.31,343.61 -311.31,274.16 -207.55,-14.62 -219.76,36.55" />
        <path
           inkscape:connector-curvature="0"
           id="path3350"
           style="fill:#f9cc78;fill-opacity:1;fill-rule:evenodd;stroke:none;stroke-width:0;stroke-miterlimit:4;stroke-dasharray:none"
           d="m 1008.43,2648.09 401.3,179.06 3316.37,33.45 964.26,-212.51 H 1008.43" />
        <path
           inkscape:connector-curvature="0"
           id="path3352"
           style="fill:#513314;fill-opacity:1;fill-rule:evenodd;stroke:none;stroke-width:0;stroke-miterlimit:4;stroke-dasharray:none"
           d="m 2996.41,3981.45 -271.26,-307.09 -309.33,-512.78 -373.45,-264.75 -208.58,24.98 539.97,295.64 311.33,486.18 z m 177.81,-1014.48 -111.48,84.67 19.51,170 -150.48,144.92 66.87,172.79 -192.28,-181.14 -64.1,-175.58 -256.39,-72.45 -129.18,-137 296.39,-194.64 521.14,188.43 v 0" />
        <path
           inkscape:connector-curvature="0"
           id="path3354"
           style="fill:#6f4419;fill-opacity:1;fill-rule:evenodd;stroke:none;stroke-width:0;stroke-miterlimit:4;stroke-dasharray:none"
           d="m 3845.72,3007.52 -131.25,254.4 -200.66,122.62 -2.79,200.65 -80.81,175.57 170,-172.78 44.6,-156.06 206.22,-61.32 420.73,-398.56 -426.04,35.48" />
        <path
           inkscape:connector-curvature="0"
           id="path3356"
           style="fill:#87b027;fill-opacity:1;fill-rule:evenodd;stroke:none;stroke-width:0;stroke-miterlimit:4;stroke-dasharray:none"
           d="m 1226.51,2745.39 202.73,126.34 855.56,105.91 h 11.16 l 922.46,-11.15 423.6,167.21 922.46,-139.34 572.82,-224.39 -469.72,57.17 -640.97,-50.16 -80.83,36.23 -997.68,-97.54 -66.9,75.24 -139.34,-66.87 -306.57,61.31 -365.07,-52.95 -275.89,58.51 -567.82,-45.52" />
        <path
           inkscape:connector-curvature="0"
           id="path3358"
           style="fill:#9ac421;fill-opacity:1;fill-rule:evenodd;stroke:none;stroke-width:0;stroke-miterlimit:4;stroke-dasharray:none"
           d="m 5115.73,2778.41 -606.99,143.49 -841.64,108.69 -281.38,-183.51 -1089.76,130.56 922.46,-11.15 423.6,167.21 922.46,-139.34 551.25,-215.95" />
        <path
           inkscape:connector-curvature="0"
           id="path3360"
           style="fill:#a86b1d;fill-opacity:1;fill-rule:evenodd;stroke:none;stroke-width:0;stroke-miterlimit:4;stroke-dasharray:none"
           d="m 4028.06,3374.64 -193.76,324.81 -284.26,250.82 -175.15,27.52 207.55,14.62 311.31,-274.16 134.31,-343.61" />
        <path
           inkscape:connector-curvature="0"
           id="path3362"
           style="fill:#62c3e8;fill-opacity:1;fill-rule:evenodd;stroke:none;stroke-width:0;stroke-miterlimit:4;stroke-dasharray:none"
           d="m 0,2395.18 h 6606.02 v 252.91 H 0 v -252.91" />
        <path
           inkscape:connector-curvature="0"
           id="path3364"
           style="fill:#3f93be;fill-opacity:1;fill-rule:evenodd;stroke:none;stroke-width:0;stroke-miterlimit:4;stroke-dasharray:none"
           d="m 1833.79,2492.47 539.97,-168.1 311.33,-276.42 311.32,-157.96 158.72,-18.73 219.76,20.8 207.55,-8.31 311.31,155.87 134.31,195.37 448.49,208.68 87.93,7.55 572.8,127.57 553.08,69.3 H 1008.43 l 218.1,-55.34 202.71,-71.82 404.55,-28.46" />
        <path
           inkscape:connector-curvature="0"
           id="path3366"
           style="fill:#4ba6ce;fill-opacity:1;fill-rule:evenodd;stroke:none;stroke-width:0;stroke-miterlimit:4;stroke-dasharray:none"
           d="m 1008.43,2648.09 h 4681.93 l -553.08,-69.3 -572.8,-127.57 -87.93,-7.55 -104.18,-48.49 H 2146.26 l -312.47,97.29 -404.55,28.46 -202.71,71.82 -218.1,55.34" />
        <path
           inkscape:connector-curvature="0"
           id="path3368"
           style="fill:#ffffff;fill-opacity:1;fill-rule:evenodd;stroke:none;stroke-width:0;stroke-miterlimit:4;stroke-dasharray:none"
           d="M -32.985299,6606.01 V -32.54794 H 6639.017 V 6606.01 Z M 1901.9,5041.8276 c 749.37,0 1113.66,-315.7304 1401.12,-788.4412 287.47,472.7108 651.75,788.4412 1401.11,788.4412 749.34,0 1638.66,-733.6711 1638.66,-1638.6824 0,-905.0114 -889.32,-1638.6625 -1638.66,-1638.6625 -749.36,0 -1113.64,315.7105 -1401.11,788.4212 -287.46,-472.7107 -651.75,-788.4212 -1401.12,-788.4212 -749.34,0 -1638.654,733.6511 -1638.654,1638.6625 0,905.0113 889.314,1638.6824 1638.654,1638.6824 v 0"
           sodipodi:nodetypes="cccccccssscsscc" />
      </g>
    </g>
  </g>
</svg>
